<?xml version="1.0" standalone="no"?>
<!DOCTYPE svg PUBLIC "-//W3C//DTD SVG 20010904//EN"
 "http://www.w3.org/TR/2001/REC-SVG-20010904/DTD/svg10.dtd">
<svg version="1.0" xmlns="http://www.w3.org/2000/svg"
 width="1392.000000pt" height="1392.000000pt" viewBox="0 0 1392.000000 1392.000000"
 preserveAspectRatio="xMidYMid meet">
<metadata>
Created by potrace 1.14, written by Peter Selinger 2001-2017
</metadata>
<g transform="translate(0.000000,1392.000000) scale(0.100000,-0.100000)"
fill="#000000" stroke="none">
<path d="M6580 10165 c0 -6 -21 -11 -47 -11 -71 -1 -265 -14 -288 -20 -11 -2
-45 -6 -75 -9 -30 -2 -55 -4 -55 -5 0 -2 -119 -13 -157 -14 -21 -1 -38 -3 -38
-6 0 -3 -12 -5 -27 -6 -41 -1 -198 -20 -198 -24 0 -1 -16 -3 -35 -5 -62 -6
-134 -15 -160 -20 -14 -2 -36 -7 -50 -10 -14 -2 -41 -7 -60 -10 -19 -3 -53
-11 -75 -17 -22 -5 -51 -12 -65 -15 -38 -8 -44 -9 -65 -16 -11 -3 -31 -8 -45
-11 -23 -5 -77 -19 -125 -32 -11 -3 -27 -7 -35 -8 -9 -1 -20 -5 -25 -8 -6 -3
-26 -9 -45 -13 -19 -4 -39 -10 -45 -13 -5 -4 -14 -7 -20 -8 -23 -4 -242 -78
-327 -110 -51 -20 -99 -36 -105 -37 -7 0 -13 -4 -13 -9 0 -4 -6 -8 -14 -8 -30
0 -311 -135 -445 -213 -67 -40 -85 -47 -92 -35 -18 32 -127 180 -169 229 -174
204 -370 315 -594 335 -79 7 -79 7 -86 5 -3 -1 -31 -3 -64 -6 -163 -10 -311
-82 -394 -190 -42 -54 -92 -147 -86 -157 3 -4 1 -8 -4 -8 -6 0 -13 -17 -17
-37 -4 -21 -9 -42 -12 -47 -16 -25 -22 -229 -10 -301 4 -22 10 -56 13 -75 4
-19 11 -41 17 -47 5 -7 7 -13 4 -13 -19 0 76 -205 138 -300 58 -88 68 -101
158 -191 42 -43 77 -81 77 -83 0 -2 -28 -25 -62 -49 -164 -119 -330 -296 -447
-477 -33 -52 -66 -101 -71 -107 -6 -7 -8 -13 -4 -13 4 0 0 -8 -9 -17 -8 -10
-19 -30 -22 -45 -4 -16 -11 -28 -16 -28 -5 0 -9 -4 -9 -9 0 -5 -12 -35 -27
-67 -15 -33 -28 -63 -29 -69 -1 -5 -14 -38 -27 -72 -14 -35 -23 -63 -20 -63 3
0 1 -6 -5 -13 -10 -11 -25 -64 -38 -136 -3 -13 -9 -32 -15 -43 -5 -10 -8 -18
-5 -18 3 0 0 -15 -5 -32 -5 -18 -12 -53 -15 -78 -3 -25 -8 -54 -10 -65 -29
-145 -25 -599 6 -706 5 -15 6 -29 4 -32 -3 -2 5 -44 16 -92 11 -49 22 -98 25
-109 2 -12 4 -21 6 -21 1 0 3 -9 5 -20 7 -52 84 -264 130 -361 19 -40 34 -75
34 -78 0 -3 13 -27 29 -53 31 -51 32 -56 17 -208 -4 -38 -9 -97 -12 -130 -4
-59 -8 -113 -19 -245 -11 -133 -16 -207 -19 -270 -2 -36 -4 -65 -5 -65 -1 0
-4 -49 -7 -110 -2 -60 -6 -141 -9 -180 -4 -72 -13 -285 -20 -480 -6 -139 -17
-592 -19 -752 -1 -110 -3 -123 -18 -123 -12 0 -18 -8 -19 -22 0 -13 -3 -120
-6 -238 -13 -422 -9 -710 13 -1105 2 -38 6 -128 9 -200 3 -71 7 -166 10 -210
16 -303 26 -650 25 -880 -1 -66 -1 -127 0 -135 0 -8 1 -76 3 -150 2 -74 6
-145 11 -158 10 -29 53 -51 91 -44 52 9 9208 7 9246 -1 32 -8 40 -5 68 20 33
30 33 30 46 203 6 80 11 162 22 415 9 193 9 1514 0 1885 -11 463 -16 706 -22
1050 -8 502 -21 960 -30 1120 -2 41 -6 122 -9 180 -3 58 -8 143 -11 190 -3 47
-8 117 -10 155 -2 39 -4 70 -5 70 -1 0 -3 33 -5 72 l-4 72 58 93 c32 51 78
131 101 178 24 47 54 106 67 133 13 26 21 47 17 47 -3 0 -2 6 4 13 14 16 103
279 97 285 -3 3 0 11 6 19 6 7 9 13 6 13 -3 0 -1 15 4 33 11 35 13 44 34 162
24 132 26 152 29 360 4 202 -5 339 -29 451 -3 12 -7 39 -11 60 -28 183 -142
480 -261 683 -122 206 -329 431 -525 570 -27 20 -44 39 -41 45 4 6 27 39 51
73 88 127 212 372 209 413 0 3 5 16 12 29 7 13 15 38 18 55 2 17 8 43 12 57
10 29 8 252 -2 287 -4 12 -9 30 -11 40 -10 42 -57 132 -99 189 -48 65 -125
131 -188 164 -111 56 -319 81 -451 54 -32 -7 -58 -10 -58 -8 0 3 -7 0 -15 -7
-8 -7 -15 -10 -15 -7 0 10 -145 -51 -201 -85 -113 -69 -235 -181 -339 -313
-30 -39 -60 -76 -67 -83 -7 -7 -13 -17 -13 -22 0 -23 -35 -14 -106 27 -44 25
-149 81 -234 123 -172 86 -282 134 -525 227 -66 25 -299 101 -365 118 -191 51
-250 66 -273 70 -15 3 -52 12 -83 20 -31 8 -59 14 -62 14 -4 -1 -9 0 -12 1 -6
2 -27 7 -65 14 -16 3 -39 8 -51 10 -32 6 -264 44 -309 50 -38 6 -105 14 -170
21 -16 2 -56 6 -87 9 -31 3 -83 8 -115 11 -74 7 -227 16 -319 19 -39 2 -76 6
-84 11 -9 6 -11 4 -5 -5 6 -9 4 -11 -6 -4 -17 10 -348 13 -370 3 -8 -4 -21 -4
-29 1 -8 5 -19 6 -25 2 -15 -10 -59 -8 -67 3 -5 7 -8 7 -8 0z"/>
</g>
</svg>
